ply
format ascii 1.0
comment VCGLIB generated
element vertex 289
property float x
property float y
property float z
element face 512
property list uchar int vertex_indices
end_header
16 0 0 
17 0 0 
17 1 0 
16 1 0 
18 0 0 
18 1 0 
19 0 0 
19 1 0 
20 1 0 
19 2 0 
16 2 0 
17 2 0 
17 3 0 
16 3 0 
18 2 0 
18 3 0 
18 4 0 
19 3 0 
19 4 0 
20 4 0 
20 0 0 
21 0 0 
21 1 0 
22 0 0 
22 1 0 
23 0 0 
23 1 0 
24 0 0 
23 2 0 
20 2 0 
21 2 0 
21 3 0 
20 3 0 
22 2 0 
22 3 0 
21 4 0 
22 4 0 
23 3 0 
24 3 0 
23 4 0 
16 4 0 
17 4 0 
17 5 0 
16 5 0 
18 5 0 
19 5 0 
19 6 0 
16 6 0 
17 6 0 
17 7 0 
16 7 0 
18 6 0 
18 7 0 
19 7 0 
20 7 0 
21 5 0 
20 5 0 
22 5 0 
23 5 0 
23 6 0 
20 6 0 
21 6 0 
21 7 0 
22 6 0 
22 7 0 
21 8 0 
22 8 0 
23 7 0 
24 7 0 
23 8 0 
25 0 0 
25 1 0 
24 1 0 
26 0 0 
26 1 0 
27 0 0 
27 1 0 
28 1 0 
27 2 0 
24 2 0 
25 2 0 
25 3 0 
26 2 0 
26 3 0 
26 4 0 
27 3 0 
27 4 0 
28 4 0 
28 0 0 
29 0 0 
29 1 0 
30 0 0 
30 1 0 
31 0 0 
31 1 0 
32 0 0 
32 1 0 
31 2 0 
32 2 0 
28 2 0 
29 2 0 
29 3 0 
28 3 0 
30 2 0 
30 3 0 
29 4 0 
30 4 0 
31 3 0 
32 3 0 
31 4 0 
32 4 0 
24 4 0 
25 4 0 
25 5 0 
24 5 0 
26 5 0 
27 5 0 
27 6 0 
24 6 0 
25 6 0 
25 7 0 
26 6 0 
26 7 0 
27 7 0 
28 7 0 
29 5 0 
28 5 0 
30 5 0 
31 5 0 
32 5 0 
31 6 0 
32 6 0 
28 6 0 
29 6 0 
29 7 0 
30 6 0 
30 7 0 
29 8 0 
28 8 0 
31 7 0 
32 7 0 
16 8 0 
17 8 0 
17 9 0 
16 9 0 
18 8 0 
18 9 0 
19 8 0 
19 9 0 
20 9 0 
19 10 0 
16 10 0 
17 10 0 
17 11 0 
16 11 0 
18 10 0 
18 11 0 
18 12 0 
19 11 0 
19 12 0 
20 12 0 
20 8 0 
21 9 0 
22 9 0 
23 9 0 
23 10 0 
24 10 0 
20 10 0 
21 10 0 
21 11 0 
20 11 0 
22 10 0 
22 11 0 
21 12 0 
22 12 0 
23 11 0 
23 12 0 
16 12 0 
17 12 0 
17 13 0 
16 13 0 
18 13 0 
19 13 0 
19 14 0 
16 14 0 
17 14 0 
17 15 0 
16 15 0 
18 14 0 
18 15 0 
17 16 0 
16 16 0 
18 16 0 
19 15 0 
20 15 0 
19 16 0 
21 13 0 
20 13 0 
22 13 0 
23 13 0 
23 14 0 
24 14 0 
20 14 0 
21 14 0 
21 15 0 
22 14 0 
22 15 0 
21 16 0 
20 16 0 
22 16 0 
23 15 0 
23 16 0 
24 8 0 
25 8 0 
25 9 0 
24 9 0 
26 8 0 
26 9 0 
27 8 0 
27 9 0 
28 9 0 
27 10 0 
25 10 0 
25 11 0 
24 11 0 
26 10 0 
26 11 0 
26 12 0 
27 11 0 
27 12 0 
28 12 0 
29 9 0 
30 8 0 
30 9 0 
31 8 0 
31 9 0 
32 8 0 
32 9 0 
31 10 0 
32 10 0 
28 10 0 
29 10 0 
29 11 0 
28 11 0 
30 10 0 
30 11 0 
29 12 0 
30 12 0 
31 11 0 
32 11 0 
31 12 0 
32 12 0 
24 12 0 
25 12 0 
25 13 0 
24 13 0 
26 13 0 
27 13 0 
27 14 0 
25 14 0 
25 15 0 
24 15 0 
26 14 0 
26 15 0 
25 16 0 
24 16 0 
26 16 0 
27 15 0 
28 15 0 
27 16 0 
29 13 0 
28 13 0 
30 13 0 
31 13 0 
32 13 0 
31 14 0 
32 14 0 
28 14 0 
29 14 0 
29 15 0 
30 14 0 
30 15 0 
29 16 0 
28 16 0 
30 16 0 
31 15 0 
32 15 0 
31 16 0 
32 16 0 
3 1 0 3 
3 1 3 2 
3 4 1 2 
3 4 2 5 
3 2 3 10 
3 2 10 11 
3 5 2 11 
3 5 11 14 
3 6 4 5 
3 6 5 7 
3 20 6 7 
3 20 7 8 
3 7 5 14 
3 7 14 9 
3 8 7 9 
3 8 9 29 
3 11 10 13 
3 11 13 12 
3 14 11 12 
3 14 12 15 
3 12 13 40 
3 12 40 41 
3 15 12 41 
3 15 41 16 
3 9 14 15 
3 9 15 17 
3 29 9 17 
3 29 17 32 
3 17 15 16 
3 17 16 18 
3 32 17 18 
3 32 18 19 
3 21 20 8 
3 21 8 22 
3 23 21 22 
3 23 22 24 
3 22 8 29 
3 22 29 30 
3 24 22 30 
3 24 30 33 
3 25 23 24 
3 25 24 26 
3 27 25 26 
3 27 26 72 
3 26 24 33 
3 26 33 28 
3 72 26 28 
3 72 28 79 
3 30 29 32 
3 30 32 31 
3 33 30 31 
3 33 31 34 
3 31 32 19 
3 31 19 35 
3 34 31 35 
3 34 35 36 
3 28 33 34 
3 28 34 37 
3 79 28 37 
3 79 37 38 
3 37 34 36 
3 37 36 39 
3 38 37 39 
3 38 39 111 
3 41 40 43 
3 41 43 42 
3 16 41 42 
3 16 42 44 
3 42 43 47 
3 42 47 48 
3 44 42 48 
3 44 48 51 
3 18 16 44 
3 18 44 45 
3 19 18 45 
3 19 45 56 
3 45 44 51 
3 45 51 46 
3 56 45 46 
3 56 46 60 
3 48 47 50 
3 48 50 49 
3 51 48 49 
3 51 49 52 
3 49 50 141 
3 49 141 142 
3 52 49 142 
3 52 142 145 
3 46 51 52 
3 46 52 53 
3 60 46 53 
3 60 53 54 
3 53 52 145 
3 53 145 147 
3 54 53 147 
3 54 147 161 
3 35 19 56 
3 35 56 55 
3 36 35 55 
3 36 55 57 
3 55 56 60 
3 55 60 61 
3 57 55 61 
3 57 61 63 
3 39 36 57 
3 39 57 58 
3 111 39 58 
3 111 58 114 
3 58 57 63 
3 58 63 59 
3 114 58 59 
3 114 59 118 
3 61 60 54 
3 61 54 62 
3 63 61 62 
3 63 62 64 
3 62 54 161 
3 62 161 65 
3 64 62 65 
3 64 65 66 
3 59 63 64 
3 59 64 67 
3 118 59 67 
3 118 67 68 
3 67 64 66 
3 67 66 69 
3 68 67 69 
3 68 69 212 
3 70 27 72 
3 70 72 71 
3 73 70 71 
3 73 71 74 
3 71 72 79 
3 71 79 80 
3 74 71 80 
3 74 80 82 
3 75 73 74 
3 75 74 76 
3 88 75 76 
3 88 76 77 
3 76 74 82 
3 76 82 78 
3 77 76 78 
3 77 78 99 
3 80 79 38 
3 80 38 81 
3 82 80 81 
3 82 81 83 
3 81 38 111 
3 81 111 112 
3 83 81 112 
3 83 112 84 
3 78 82 83 
3 78 83 85 
3 99 78 85 
3 99 85 102 
3 85 83 84 
3 85 84 86 
3 102 85 86 
3 102 86 87 
3 89 88 77 
3 89 77 90 
3 91 89 90 
3 91 90 92 
3 90 77 99 
3 90 99 100 
3 92 90 100 
3 92 100 103 
3 93 91 92 
3 93 92 94 
3 95 93 94 
3 95 94 96 
3 94 92 103 
3 94 103 97 
3 96 94 97 
3 96 97 98 
3 100 99 102 
3 100 102 101 
3 103 100 101 
3 103 101 104 
3 101 102 87 
3 101 87 105 
3 104 101 105 
3 104 105 106 
3 97 103 104 
3 97 104 107 
3 98 97 107 
3 98 107 108 
3 107 104 106 
3 107 106 109 
3 108 107 109 
3 108 109 110 
3 112 111 114 
3 112 114 113 
3 84 112 113 
3 84 113 115 
3 113 114 118 
3 113 118 119 
3 115 113 119 
3 115 119 121 
3 86 84 115 
3 86 115 116 
3 87 86 116 
3 87 116 126 
3 116 115 121 
3 116 121 117 
3 126 116 117 
3 126 117 132 
3 119 118 68 
3 119 68 120 
3 121 119 120 
3 121 120 122 
3 120 68 212 
3 120 212 213 
3 122 120 213 
3 122 213 216 
3 117 121 122 
3 117 122 123 
3 132 117 123 
3 132 123 124 
3 123 122 216 
3 123 216 218 
3 124 123 218 
3 124 218 138 
3 105 87 126 
3 105 126 125 
3 106 105 125 
3 106 125 127 
3 125 126 132 
3 125 132 133 
3 127 125 133 
3 127 133 135 
3 109 106 127 
3 109 127 128 
3 110 109 128 
3 110 128 129 
3 128 127 135 
3 128 135 130 
3 129 128 130 
3 129 130 131 
3 133 132 124 
3 133 124 134 
3 135 133 134 
3 135 134 136 
3 134 124 138 
3 134 138 137 
3 136 134 137 
3 136 137 232 
3 130 135 136 
3 130 136 139 
3 131 130 139 
3 131 139 140 
3 139 136 232 
3 139 232 234 
3 140 139 234 
3 140 234 236 
3 142 141 144 
3 142 144 143 
3 145 142 143 
3 145 143 146 
3 143 144 151 
3 143 151 152 
3 146 143 152 
3 146 152 155 
3 147 145 146 
3 147 146 148 
3 161 147 148 
3 161 148 149 
3 148 146 155 
3 148 155 150 
3 149 148 150 
3 149 150 167 
3 152 151 154 
3 152 154 153 
3 155 152 153 
3 155 153 156 
3 153 154 177 
3 153 177 178 
3 156 153 178 
3 156 178 157 
3 150 155 156 
3 150 156 158 
3 167 150 158 
3 167 158 170 
3 158 156 157 
3 158 157 159 
3 170 158 159 
3 170 159 160 
3 65 161 149 
3 65 149 162 
3 66 65 162 
3 66 162 163 
3 162 149 167 
3 162 167 168 
3 163 162 168 
3 163 168 171 
3 69 66 163 
3 69 163 164 
3 212 69 164 
3 212 164 215 
3 164 163 171 
3 164 171 165 
3 215 164 165 
3 215 165 166 
3 168 167 170 
3 168 170 169 
3 171 168 169 
3 171 169 172 
3 169 170 160 
3 169 160 173 
3 172 169 173 
3 172 173 174 
3 165 171 172 
3 165 172 175 
3 166 165 175 
3 166 175 224 
3 175 172 174 
3 175 174 176 
3 224 175 176 
3 224 176 252 
3 178 177 180 
3 178 180 179 
3 157 178 179 
3 157 179 181 
3 179 180 184 
3 179 184 185 
3 181 179 185 
3 181 185 188 
3 159 157 181 
3 159 181 182 
3 160 159 182 
3 160 182 197 
3 182 181 188 
3 182 188 183 
3 197 182 183 
3 197 183 202 
3 185 184 187 
3 185 187 186 
3 188 185 186 
3 188 186 189 
3 186 187 191 
3 186 191 190 
3 189 186 190 
3 189 190 192 
3 183 188 189 
3 183 189 193 
3 202 183 193 
3 202 193 194 
3 193 189 192 
3 193 192 195 
3 194 193 195 
3 194 195 208 
3 173 160 197 
3 173 197 196 
3 174 173 196 
3 174 196 198 
3 196 197 202 
3 196 202 203 
3 198 196 203 
3 198 203 205 
3 176 174 198 
3 176 198 199 
3 252 176 199 
3 252 199 255 
3 199 198 205 
3 199 205 200 
3 255 199 200 
3 255 200 201 
3 203 202 194 
3 203 194 204 
3 205 203 204 
3 205 204 206 
3 204 194 208 
3 204 208 207 
3 206 204 207 
3 206 207 209 
3 200 205 206 
3 200 206 210 
3 201 200 210 
3 201 210 261 
3 210 206 209 
3 210 209 211 
3 261 210 211 
3 261 211 265 
3 213 212 215 
3 213 215 214 
3 216 213 214 
3 216 214 217 
3 214 215 166 
3 214 166 222 
3 217 214 222 
3 217 222 225 
3 218 216 217 
3 218 217 219 
3 138 218 219 
3 138 219 220 
3 219 217 225 
3 219 225 221 
3 220 219 221 
3 220 221 240 
3 222 166 224 
3 222 224 223 
3 225 222 223 
3 225 223 226 
3 223 224 252 
3 223 252 253 
3 226 223 253 
3 226 253 227 
3 221 225 226 
3 221 226 228 
3 240 221 228 
3 240 228 243 
3 228 226 227 
3 228 227 229 
3 243 228 229 
3 243 229 230 
3 137 138 220 
3 137 220 231 
3 232 137 231 
3 232 231 233 
3 231 220 240 
3 231 240 241 
3 233 231 241 
3 233 241 244 
3 234 232 233 
3 234 233 235 
3 236 234 235 
3 236 235 237 
3 235 233 244 
3 235 244 238 
3 237 235 238 
3 237 238 239 
3 241 240 243 
3 241 243 242 
3 244 241 242 
3 244 242 245 
3 242 243 230 
3 242 230 246 
3 245 242 246 
3 245 246 247 
3 238 244 245 
3 238 245 248 
3 239 238 248 
3 239 248 249 
3 248 245 247 
3 248 247 250 
3 249 248 250 
3 249 250 251 
3 253 252 255 
3 253 255 254 
3 227 253 254 
3 227 254 256 
3 254 255 201 
3 254 201 259 
3 256 254 259 
3 256 259 262 
3 229 227 256 
3 229 256 257 
3 230 229 257 
3 230 257 271 
3 257 256 262 
3 257 262 258 
3 271 257 258 
3 271 258 277 
3 259 201 261 
3 259 261 260 
3 262 259 260 
3 262 260 263 
3 260 261 265 
3 260 265 264 
3 263 260 264 
3 263 264 266 
3 258 262 263 
3 258 263 267 
3 277 258 267 
3 277 267 268 
3 267 263 266 
3 267 266 269 
3 268 267 269 
3 268 269 283 
3 246 230 271 
3 246 271 270 
3 247 246 270 
3 247 270 272 
3 270 271 277 
3 270 277 278 
3 272 270 278 
3 272 278 280 
3 250 247 272 
3 250 272 273 
3 251 250 273 
3 251 273 274 
3 273 272 280 
3 273 280 275 
3 274 273 275 
3 274 275 276 
3 278 277 268 
3 278 268 279 
3 280 278 279 
3 280 279 281 
3 279 268 283 
3 279 283 282 
3 281 279 282 
3 281 282 284 
3 275 280 281 
3 275 281 285 
3 276 275 285 
3 276 285 286 
3 285 281 284 
3 285 284 287 
3 286 285 287 
3 286 287 288 
