ply
format ascii 1.0
comment VCGLIB generated
element vertex 25
property float x
property float y
property float z
element face 32
property list uchar int vertex_indices
end_header
0 0 0 
1 0 0 
1 1 0 
0 1 0 
2 0 0 
2 1 0 
3 0 0 
3 1 0 
4 0 0 
4 1 0 
3 2 0 
4 2 0 
0 2 0 
1 2 0 
1 3 0 
0 3 0 
2 2 0 
2 3 0 
1 4 0 
0 4 0 
2 4 0 
3 3 0 
4 3 0 
3 4 0 
4 4 0 
3 1 0 3 
3 1 3 2 
3 4 1 2 
3 4 2 5 
3 2 3 12 
3 2 12 13 
3 5 2 13 
3 5 13 16 
3 6 4 5 
3 6 5 7 
3 8 6 7 
3 8 7 9 
3 7 5 16 
3 7 16 10 
3 9 7 10 
3 9 10 11 
3 13 12 15 
3 13 15 14 
3 16 13 14 
3 16 14 17 
3 14 15 19 
3 14 19 18 
3 17 14 18 
3 17 18 20 
3 10 16 17 
3 10 17 21 
3 11 10 21 
3 11 21 22 
3 21 17 20 
3 21 20 23 
3 22 21 23 
3 22 23 24 
