ply
format ascii 1.0
comment VCGLIB generated
element vertex 289
property float x
property float y
property float z
element face 512
property list uchar int vertex_indices
end_header
0 16 0 
1 16 0 
1 17 0 
0 17 0 
2 16 0 
2 17 0 
3 16 0 
3 17 0 
4 17 0 
3 18 0 
0 18 0 
1 18 0 
1 19 0 
0 19 0 
2 18 0 
2 19 0 
2 20 0 
3 19 0 
3 20 0 
4 20 0 
4 16 0 
5 16 0 
5 17 0 
6 16 0 
6 17 0 
7 16 0 
7 17 0 
8 16 0 
7 18 0 
4 18 0 
5 18 0 
5 19 0 
4 19 0 
6 18 0 
6 19 0 
5 20 0 
6 20 0 
7 19 0 
8 19 0 
7 20 0 
0 20 0 
1 20 0 
1 21 0 
0 21 0 
2 21 0 
3 21 0 
3 22 0 
0 22 0 
1 22 0 
1 23 0 
0 23 0 
2 22 0 
2 23 0 
3 23 0 
4 23 0 
5 21 0 
4 21 0 
6 21 0 
7 21 0 
7 22 0 
4 22 0 
5 22 0 
5 23 0 
6 22 0 
6 23 0 
5 24 0 
6 24 0 
7 23 0 
8 23 0 
7 24 0 
9 16 0 
9 17 0 
8 17 0 
10 16 0 
10 17 0 
11 16 0 
11 17 0 
12 17 0 
11 18 0 
8 18 0 
9 18 0 
9 19 0 
10 18 0 
10 19 0 
10 20 0 
11 19 0 
11 20 0 
12 20 0 
12 16 0 
13 16 0 
13 17 0 
14 16 0 
14 17 0 
15 16 0 
15 17 0 
16 16 0 
16 17 0 
15 18 0 
16 18 0 
12 18 0 
13 18 0 
13 19 0 
12 19 0 
14 18 0 
14 19 0 
13 20 0 
14 20 0 
15 19 0 
16 19 0 
15 20 0 
16 20 0 
8 20 0 
9 20 0 
9 21 0 
8 21 0 
10 21 0 
11 21 0 
11 22 0 
8 22 0 
9 22 0 
9 23 0 
10 22 0 
10 23 0 
11 23 0 
12 23 0 
13 21 0 
12 21 0 
14 21 0 
15 21 0 
16 21 0 
15 22 0 
16 22 0 
12 22 0 
13 22 0 
13 23 0 
14 22 0 
14 23 0 
13 24 0 
12 24 0 
15 23 0 
16 23 0 
0 24 0 
1 24 0 
1 25 0 
0 25 0 
2 24 0 
2 25 0 
3 24 0 
3 25 0 
4 25 0 
3 26 0 
0 26 0 
1 26 0 
1 27 0 
0 27 0 
2 26 0 
2 27 0 
2 28 0 
3 27 0 
3 28 0 
4 28 0 
4 24 0 
5 25 0 
6 25 0 
7 25 0 
7 26 0 
8 26 0 
4 26 0 
5 26 0 
5 27 0 
4 27 0 
6 26 0 
6 27 0 
5 28 0 
6 28 0 
7 27 0 
7 28 0 
0 28 0 
1 28 0 
1 29 0 
0 29 0 
2 29 0 
3 29 0 
3 30 0 
0 30 0 
1 30 0 
1 31 0 
0 31 0 
2 30 0 
2 31 0 
1 32 0 
0 32 0 
2 32 0 
3 31 0 
4 31 0 
3 32 0 
5 29 0 
4 29 0 
6 29 0 
7 29 0 
7 30 0 
8 30 0 
4 30 0 
5 30 0 
5 31 0 
6 30 0 
6 31 0 
5 32 0 
4 32 0 
6 32 0 
7 31 0 
7 32 0 
8 24 0 
9 24 0 
9 25 0 
8 25 0 
10 24 0 
10 25 0 
11 24 0 
11 25 0 
12 25 0 
11 26 0 
9 26 0 
9 27 0 
8 27 0 
10 26 0 
10 27 0 
10 28 0 
11 27 0 
11 28 0 
12 28 0 
13 25 0 
14 24 0 
14 25 0 
15 24 0 
15 25 0 
16 24 0 
16 25 0 
15 26 0 
16 26 0 
12 26 0 
13 26 0 
13 27 0 
12 27 0 
14 26 0 
14 27 0 
13 28 0 
14 28 0 
15 27 0 
16 27 0 
15 28 0 
16 28 0 
8 28 0 
9 28 0 
9 29 0 
8 29 0 
10 29 0 
11 29 0 
11 30 0 
9 30 0 
9 31 0 
8 31 0 
10 30 0 
10 31 0 
9 32 0 
8 32 0 
10 32 0 
11 31 0 
12 31 0 
11 32 0 
13 29 0 
12 29 0 
14 29 0 
15 29 0 
16 29 0 
15 30 0 
16 30 0 
12 30 0 
13 30 0 
13 31 0 
14 30 0 
14 31 0 
13 32 0 
12 32 0 
14 32 0 
15 31 0 
16 31 0 
15 32 0 
16 32 0 
3 1 0 3 
3 1 3 2 
3 4 1 2 
3 4 2 5 
3 2 3 10 
3 2 10 11 
3 5 2 11 
3 5 11 14 
3 6 4 5 
3 6 5 7 
3 20 6 7 
3 20 7 8 
3 7 5 14 
3 7 14 9 
3 8 7 9 
3 8 9 29 
3 11 10 13 
3 11 13 12 
3 14 11 12 
3 14 12 15 
3 12 13 40 
3 12 40 41 
3 15 12 41 
3 15 41 16 
3 9 14 15 
3 9 15 17 
3 29 9 17 
3 29 17 32 
3 17 15 16 
3 17 16 18 
3 32 17 18 
3 32 18 19 
3 21 20 8 
3 21 8 22 
3 23 21 22 
3 23 22 24 
3 22 8 29 
3 22 29 30 
3 24 22 30 
3 24 30 33 
3 25 23 24 
3 25 24 26 
3 27 25 26 
3 27 26 72 
3 26 24 33 
3 26 33 28 
3 72 26 28 
3 72 28 79 
3 30 29 32 
3 30 32 31 
3 33 30 31 
3 33 31 34 
3 31 32 19 
3 31 19 35 
3 34 31 35 
3 34 35 36 
3 28 33 34 
3 28 34 37 
3 79 28 37 
3 79 37 38 
3 37 34 36 
3 37 36 39 
3 38 37 39 
3 38 39 111 
3 41 40 43 
3 41 43 42 
3 16 41 42 
3 16 42 44 
3 42 43 47 
3 42 47 48 
3 44 42 48 
3 44 48 51 
3 18 16 44 
3 18 44 45 
3 19 18 45 
3 19 45 56 
3 45 44 51 
3 45 51 46 
3 56 45 46 
3 56 46 60 
3 48 47 50 
3 48 50 49 
3 51 48 49 
3 51 49 52 
3 49 50 141 
3 49 141 142 
3 52 49 142 
3 52 142 145 
3 46 51 52 
3 46 52 53 
3 60 46 53 
3 60 53 54 
3 53 52 145 
3 53 145 147 
3 54 53 147 
3 54 147 161 
3 35 19 56 
3 35 56 55 
3 36 35 55 
3 36 55 57 
3 55 56 60 
3 55 60 61 
3 57 55 61 
3 57 61 63 
3 39 36 57 
3 39 57 58 
3 111 39 58 
3 111 58 114 
3 58 57 63 
3 58 63 59 
3 114 58 59 
3 114 59 118 
3 61 60 54 
3 61 54 62 
3 63 61 62 
3 63 62 64 
3 62 54 161 
3 62 161 65 
3 64 62 65 
3 64 65 66 
3 59 63 64 
3 59 64 67 
3 118 59 67 
3 118 67 68 
3 67 64 66 
3 67 66 69 
3 68 67 69 
3 68 69 212 
3 70 27 72 
3 70 72 71 
3 73 70 71 
3 73 71 74 
3 71 72 79 
3 71 79 80 
3 74 71 80 
3 74 80 82 
3 75 73 74 
3 75 74 76 
3 88 75 76 
3 88 76 77 
3 76 74 82 
3 76 82 78 
3 77 76 78 
3 77 78 99 
3 80 79 38 
3 80 38 81 
3 82 80 81 
3 82 81 83 
3 81 38 111 
3 81 111 112 
3 83 81 112 
3 83 112 84 
3 78 82 83 
3 78 83 85 
3 99 78 85 
3 99 85 102 
3 85 83 84 
3 85 84 86 
3 102 85 86 
3 102 86 87 
3 89 88 77 
3 89 77 90 
3 91 89 90 
3 91 90 92 
3 90 77 99 
3 90 99 100 
3 92 90 100 
3 92 100 103 
3 93 91 92 
3 93 92 94 
3 95 93 94 
3 95 94 96 
3 94 92 103 
3 94 103 97 
3 96 94 97 
3 96 97 98 
3 100 99 102 
3 100 102 101 
3 103 100 101 
3 103 101 104 
3 101 102 87 
3 101 87 105 
3 104 101 105 
3 104 105 106 
3 97 103 104 
3 97 104 107 
3 98 97 107 
3 98 107 108 
3 107 104 106 
3 107 106 109 
3 108 107 109 
3 108 109 110 
3 112 111 114 
3 112 114 113 
3 84 112 113 
3 84 113 115 
3 113 114 118 
3 113 118 119 
3 115 113 119 
3 115 119 121 
3 86 84 115 
3 86 115 116 
3 87 86 116 
3 87 116 126 
3 116 115 121 
3 116 121 117 
3 126 116 117 
3 126 117 132 
3 119 118 68 
3 119 68 120 
3 121 119 120 
3 121 120 122 
3 120 68 212 
3 120 212 213 
3 122 120 213 
3 122 213 216 
3 117 121 122 
3 117 122 123 
3 132 117 123 
3 132 123 124 
3 123 122 216 
3 123 216 218 
3 124 123 218 
3 124 218 138 
3 105 87 126 
3 105 126 125 
3 106 105 125 
3 106 125 127 
3 125 126 132 
3 125 132 133 
3 127 125 133 
3 127 133 135 
3 109 106 127 
3 109 127 128 
3 110 109 128 
3 110 128 129 
3 128 127 135 
3 128 135 130 
3 129 128 130 
3 129 130 131 
3 133 132 124 
3 133 124 134 
3 135 133 134 
3 135 134 136 
3 134 124 138 
3 134 138 137 
3 136 134 137 
3 136 137 232 
3 130 135 136 
3 130 136 139 
3 131 130 139 
3 131 139 140 
3 139 136 232 
3 139 232 234 
3 140 139 234 
3 140 234 236 
3 142 141 144 
3 142 144 143 
3 145 142 143 
3 145 143 146 
3 143 144 151 
3 143 151 152 
3 146 143 152 
3 146 152 155 
3 147 145 146 
3 147 146 148 
3 161 147 148 
3 161 148 149 
3 148 146 155 
3 148 155 150 
3 149 148 150 
3 149 150 167 
3 152 151 154 
3 152 154 153 
3 155 152 153 
3 155 153 156 
3 153 154 177 
3 153 177 178 
3 156 153 178 
3 156 178 157 
3 150 155 156 
3 150 156 158 
3 167 150 158 
3 167 158 170 
3 158 156 157 
3 158 157 159 
3 170 158 159 
3 170 159 160 
3 65 161 149 
3 65 149 162 
3 66 65 162 
3 66 162 163 
3 162 149 167 
3 162 167 168 
3 163 162 168 
3 163 168 171 
3 69 66 163 
3 69 163 164 
3 212 69 164 
3 212 164 215 
3 164 163 171 
3 164 171 165 
3 215 164 165 
3 215 165 166 
3 168 167 170 
3 168 170 169 
3 171 168 169 
3 171 169 172 
3 169 170 160 
3 169 160 173 
3 172 169 173 
3 172 173 174 
3 165 171 172 
3 165 172 175 
3 166 165 175 
3 166 175 224 
3 175 172 174 
3 175 174 176 
3 224 175 176 
3 224 176 252 
3 178 177 180 
3 178 180 179 
3 157 178 179 
3 157 179 181 
3 179 180 184 
3 179 184 185 
3 181 179 185 
3 181 185 188 
3 159 157 181 
3 159 181 182 
3 160 159 182 
3 160 182 197 
3 182 181 188 
3 182 188 183 
3 197 182 183 
3 197 183 202 
3 185 184 187 
3 185 187 186 
3 188 185 186 
3 188 186 189 
3 186 187 191 
3 186 191 190 
3 189 186 190 
3 189 190 192 
3 183 188 189 
3 183 189 193 
3 202 183 193 
3 202 193 194 
3 193 189 192 
3 193 192 195 
3 194 193 195 
3 194 195 208 
3 173 160 197 
3 173 197 196 
3 174 173 196 
3 174 196 198 
3 196 197 202 
3 196 202 203 
3 198 196 203 
3 198 203 205 
3 176 174 198 
3 176 198 199 
3 252 176 199 
3 252 199 255 
3 199 198 205 
3 199 205 200 
3 255 199 200 
3 255 200 201 
3 203 202 194 
3 203 194 204 
3 205 203 204 
3 205 204 206 
3 204 194 208 
3 204 208 207 
3 206 204 207 
3 206 207 209 
3 200 205 206 
3 200 206 210 
3 201 200 210 
3 201 210 261 
3 210 206 209 
3 210 209 211 
3 261 210 211 
3 261 211 265 
3 213 212 215 
3 213 215 214 
3 216 213 214 
3 216 214 217 
3 214 215 166 
3 214 166 222 
3 217 214 222 
3 217 222 225 
3 218 216 217 
3 218 217 219 
3 138 218 219 
3 138 219 220 
3 219 217 225 
3 219 225 221 
3 220 219 221 
3 220 221 240 
3 222 166 224 
3 222 224 223 
3 225 222 223 
3 225 223 226 
3 223 224 252 
3 223 252 253 
3 226 223 253 
3 226 253 227 
3 221 225 226 
3 221 226 228 
3 240 221 228 
3 240 228 243 
3 228 226 227 
3 228 227 229 
3 243 228 229 
3 243 229 230 
3 137 138 220 
3 137 220 231 
3 232 137 231 
3 232 231 233 
3 231 220 240 
3 231 240 241 
3 233 231 241 
3 233 241 244 
3 234 232 233 
3 234 233 235 
3 236 234 235 
3 236 235 237 
3 235 233 244 
3 235 244 238 
3 237 235 238 
3 237 238 239 
3 241 240 243 
3 241 243 242 
3 244 241 242 
3 244 242 245 
3 242 243 230 
3 242 230 246 
3 245 242 246 
3 245 246 247 
3 238 244 245 
3 238 245 248 
3 239 238 248 
3 239 248 249 
3 248 245 247 
3 248 247 250 
3 249 248 250 
3 249 250 251 
3 253 252 255 
3 253 255 254 
3 227 253 254 
3 227 254 256 
3 254 255 201 
3 254 201 259 
3 256 254 259 
3 256 259 262 
3 229 227 256 
3 229 256 257 
3 230 229 257 
3 230 257 271 
3 257 256 262 
3 257 262 258 
3 271 257 258 
3 271 258 277 
3 259 201 261 
3 259 261 260 
3 262 259 260 
3 262 260 263 
3 260 261 265 
3 260 265 264 
3 263 260 264 
3 263 264 266 
3 258 262 263 
3 258 263 267 
3 277 258 267 
3 277 267 268 
3 267 263 266 
3 267 266 269 
3 268 267 269 
3 268 269 283 
3 246 230 271 
3 246 271 270 
3 247 246 270 
3 247 270 272 
3 270 271 277 
3 270 277 278 
3 272 270 278 
3 272 278 280 
3 250 247 272 
3 250 272 273 
3 251 250 273 
3 251 273 274 
3 273 272 280 
3 273 280 275 
3 274 273 275 
3 274 275 276 
3 278 277 268 
3 278 268 279 
3 280 278 279 
3 280 279 281 
3 279 268 283 
3 279 283 282 
3 281 279 282 
3 281 282 284 
3 275 280 281 
3 275 281 285 
3 276 275 285 
3 276 285 286 
3 285 281 284 
3 285 284 287 
3 286 285 287 
3 286 287 288 
