ply
format ascii 1.0
comment VCGLIB generated
element vertex 1089
property float x
property float y
property float z
element face 2048
property list uchar int vertex_indices
end_header
-768 -768 129 
-720 -768 129 
-720 -720 129 
-768 -720 129 
-672 -768 129 
-672 -720 129 
-624 -768 129 
-624 -720 129 
-576 -720 129 
-624 -672 129 
-768 -672 129 
-720 -672 129 
-720 -624 129 
-768 -624 129 
-672 -672 129 
-672 -624 129 
-672 -576 129 
-624 -624 129 
-624 -576 129 
-576 -576 129 
-576 -768 129 
-528 -768 129 
-528 -720 129 
-480 -768 129 
-480 -720 129 
-432 -768 129 
-432 -720 129 
-384 -768 129 
-432 -672 129 
-576 -672 129 
-528 -672 129 
-528 -624 129 
-576 -624 129 
-480 -672 129 
-480 -624 129 
-528 -576 129 
-480 -576 129 
-432 -624 129 
-384 -624 129 
-432 -576 129 
-768 -576 129 
-720 -576 129 
-720 -528 129 
-768 -528 129 
-672 -528 129 
-624 -528 129 
-624 -480 129 
-768 -480 129 
-720 -480 129 
-720 -432 129 
-768 -432 129 
-672 -480 129 
-672 -432 129 
-624 -432 129 
-576 -432 129 
-528 -528 129 
-576 -528 129 
-480 -528 129 
-432 -528 129 
-432 -480 129 
-576 -480 129 
-528 -480 129 
-528 -432 129 
-480 -480 129 
-480 -432 129 
-528 -384 129 
-480 -384 129 
-432 -432 129 
-384 -432 129 
-432 -384 129 
-336 -768 129 
-336 -720 129 
-384 -720 129 
-288 -768 129 
-288 -720 129 
-240 -768 129 
-240 -720 129 
-192 -720 129 
-240 -672 129 
-384 -672 129 
-336 -672 129 
-336 -624 129 
-288 -672 129 
-288 -624 129 
-288 -576 129 
-240 -624 129 
-240 -576 129 
-192 -576 129 
-192 -768 129 
-144 -768 129 
-144 -720 129 
-96 -768 129 
-96 -720 129 
-48 -768 129 
-48 -720 129 
0 -768 129 
0 -720 129 
-48 -672 129 
-192 -672 129 
-144 -672 129 
-144 -624 129 
-192 -624 129 
-96 -672 129 
-96 -624 129 
-144 -576 129 
-96 -576 129 
-48 -624 129 
0 -624 129 
-48 -576 129 
0 -576 129 
-384 -576 129 
-336 -576 129 
-336 -528 129 
-384 -528 129 
-288 -528 129 
-240 -528 129 
-240 -480 129 
-384 -480 129 
-336 -480 129 
-336 -432 129 
-288 -480 129 
-288 -432 129 
-240 -432 129 
-192 -432 129 
-144 -528 129 
-192 -528 129 
-96 -528 129 
-48 -528 129 
0 -528 129 
-48 -480 129 
-192 -480 129 
-144 -480 129 
-144 -432 129 
-96 -480 129 
-96 -432 129 
-144 -384 129 
-192 -384 129 
-48 -432 129 
-768 -384 129 
-720 -384 129 
-720 -336 129 
-768 -336 129 
-672 -384 129 
-672 -336 129 
-624 -384 129 
-624 -336 129 
-576 -336 129 
-624 -288 129 
-768 -288 129 
-720 -288 129 
-720 -240 129 
-768 -240 129 
-672 -288 129 
-672 -240 129 
-672 -192 129 
-624 -240 129 
-624 -192 129 
-576 -192 129 
-576 -384 129 
-528 -336 129 
-480 -336 129 
-432 -336 129 
-432 -288 129 
-384 -288 129 
-576 -288 129 
-528 -288 129 
-528 -240 129 
-576 -240 129 
-480 -288 129 
-480 -240 129 
-528 -192 129 
-480 -192 129 
-432 -240 129 
-432 -192 129 
-768 -192 129 
-720 -192 129 
-720 -144 129 
-768 -144 129 
-672 -144 129 
-624 -144 129 
-624 -96 129 
-768 -96 129 
-720 -96 129 
-720 -48 129 
-768 -48 129 
-672 -96 129 
-672 -48 129 
-624 -48 129 
-576 -48 129 
-528 -144 129 
-576 -144 129 
-480 -144 129 
-432 -144 129 
-432 -96 129 
-384 -96 129 
-576 -96 129 
-528 -96 129 
-528 -48 129 
-480 -96 129 
-480 -48 129 
-576 0 129 
-432 -48 129 
-384 -384 129 
-336 -384 129 
-336 -336 129 
-384 -336 129 
-288 -384 129 
-288 -336 129 
-240 -384 129 
-240 -336 129 
-192 -336 129 
-240 -288 129 
-336 -288 129 
-336 -240 129 
-384 -240 129 
-288 -288 129 
-288 -240 129 
-288 -192 129 
-240 -240 129 
-240 -192 129 
-192 -192 129 
-144 -336 129 
-96 -384 129 
-96 -336 129 
-48 -384 129 
-48 -336 129 
0 -384 129 
0 -336 129 
-48 -288 129 
-192 -288 129 
-144 -288 129 
-144 -240 129 
-192 -240 129 
-96 -288 129 
-96 -240 129 
-144 -192 129 
-96 -192 129 
-48 -240 129 
-48 -192 129 
-384 -192 129 
-336 -192 129 
-336 -144 129 
-384 -144 129 
-288 -144 129 
-240 -144 129 
-240 -96 129 
-336 -96 129 
-336 -48 129 
-384 -48 129 
-288 -96 129 
-288 -48 129 
-288 0 129 
-240 -48 129 
-192 -48 129 
-240 0 129 
-144 -144 129 
-192 -144 129 
-96 -144 129 
-48 -144 129 
0 -144 129 
-48 -96 129 
-192 -96 129 
-144 -96 129 
-144 -48 129 
-96 -96 129 
-96 -48 129 
-144 0 129 
-192 0 129 
-48 -48 129 
-48 0 129 
48 -768 129 
48 -720 129 
96 -768 129 
96 -720 129 
144 -768 129 
144 -720 129 
192 -720 129 
144 -672 129 
0 -672 129 
48 -672 129 
48 -624 129 
96 -672 129 
96 -624 129 
96 -576 129 
144 -624 129 
144 -576 129 
192 -576 129 
192 -768 129 
240 -768 129 
240 -720 129 
288 -768 129 
288 -720 129 
336 -768 129 
336 -720 129 
384 -768 129 
336 -672 129 
192 -672 129 
240 -672 129 
240 -624 129 
192 -624 129 
288 -672 129 
288 -624 129 
240 -576 129 
288 -576 129 
336 -624 129 
384 -624 129 
336 -576 129 
48 -576 129 
48 -528 129 
96 -528 129 
144 -528 129 
144 -480 129 
0 -480 129 
48 -480 129 
48 -432 129 
0 -432 129 
96 -480 129 
96 -432 129 
144 -432 129 
192 -432 129 
240 -528 129 
192 -528 129 
288 -528 129 
336 -528 129 
336 -480 129 
192 -480 129 
240 -480 129 
240 -432 129 
288 -480 129 
288 -432 129 
240 -384 129 
288 -384 129 
336 -432 129 
384 -432 129 
336 -384 129 
432 -768 129 
432 -720 129 
384 -720 129 
480 -768 129 
480 -720 129 
528 -768 129 
528 -720 129 
576 -720 129 
528 -672 129 
384 -672 129 
432 -672 129 
432 -624 129 
480 -672 129 
480 -624 129 
480 -576 129 
528 -624 129 
528 -576 129 
576 -576 129 
576 -768 129 
624 -768 129 
624 -720 129 
672 -768 129 
672 -720 129 
720 -768 129 
720 -720 129 
768 -768 129 
768 -720 129 
720 -672 129 
768 -672 129 
576 -672 129 
624 -672 129 
624 -624 129 
576 -624 129 
672 -672 129 
672 -624 129 
624 -576 129 
672 -576 129 
720 -624 129 
768 -624 129 
720 -576 129 
768 -576 129 
384 -576 129 
432 -576 129 
432 -528 129 
384 -528 129 
480 -528 129 
528 -528 129 
528 -480 129 
384 -480 129 
432 -480 129 
432 -432 129 
480 -480 129 
480 -432 129 
528 -432 129 
576 -432 129 
624 -528 129 
576 -528 129 
672 -528 129 
720 -528 129 
768 -528 129 
720 -480 129 
768 -480 129 
576 -480 129 
624 -480 129 
624 -432 129 
672 -480 129 
672 -432 129 
624 -384 129 
576 -384 129 
720 -432 129 
768 -432 129 
48 -384 129 
48 -336 129 
96 -384 129 
96 -336 129 
144 -384 129 
144 -336 129 
192 -336 129 
144 -288 129 
0 -288 129 
48 -288 129 
48 -240 129 
0 -240 129 
96 -288 129 
96 -240 129 
96 -192 129 
144 -240 129 
144 -192 129 
192 -192 129 
192 -384 129 
240 -336 129 
288 -336 129 
336 -336 129 
336 -288 129 
384 -288 129 
192 -288 129 
240 -288 129 
240 -240 129 
192 -240 129 
288 -288 129 
288 -240 129 
240 -192 129 
288 -192 129 
336 -240 129 
336 -192 129 
0 -192 129 
48 -192 129 
48 -144 129 
96 -144 129 
144 -144 129 
144 -96 129 
0 -96 129 
48 -96 129 
48 -48 129 
0 -48 129 
96 -96 129 
96 -48 129 
48 0 129 
96 0 129 
144 -48 129 
192 -48 129 
144 0 129 
240 -144 129 
192 -144 129 
288 -144 129 
336 -144 129 
336 -96 129 
384 -96 129 
192 -96 129 
240 -96 129 
240 -48 129 
288 -96 129 
288 -48 129 
240 0 129 
192 0 129 
336 -48 129 
336 0 129 
384 -384 129 
432 -384 129 
432 -336 129 
384 -336 129 
480 -384 129 
480 -336 129 
528 -384 129 
528 -336 129 
576 -336 129 
528 -288 129 
432 -288 129 
432 -240 129 
384 -240 129 
480 -288 129 
480 -240 129 
480 -192 129 
528 -240 129 
528 -192 129 
576 -192 129 
624 -336 129 
672 -384 129 
672 -336 129 
720 -384 129 
720 -336 129 
768 -384 129 
768 -336 129 
720 -288 129 
768 -288 129 
576 -288 129 
624 -288 129 
624 -240 129 
576 -240 129 
672 -288 129 
672 -240 129 
624 -192 129 
672 -192 129 
720 -240 129 
768 -240 129 
720 -192 129 
768 -192 129 
384 -192 129 
432 -192 129 
432 -144 129 
384 -144 129 
480 -144 129 
528 -144 129 
528 -96 129 
432 -96 129 
432 -48 129 
384 -48 129 
480 -96 129 
480 -48 129 
432 0 129 
384 0 129 
480 0 129 
528 -48 129 
576 -48 129 
624 -144 129 
576 -144 129 
672 -144 129 
720 -144 129 
768 -144 129 
720 -96 129 
768 -96 129 
576 -96 129 
624 -96 129 
624 -48 129 
672 -96 129 
672 -48 129 
672 0 129 
720 -48 129 
768 -48 129 
-768 0 129 
-720 0 129 
-720 48 129 
-768 48 129 
-672 0 129 
-672 48 129 
-624 0 129 
-624 48 129 
-576 48 129 
-624 96 129 
-768 96 129 
-720 96 129 
-720 144 129 
-768 144 129 
-672 96 129 
-672 144 129 
-672 192 129 
-624 144 129 
-624 192 129 
-576 192 129 
-528 0 129 
-528 48 129 
-480 0 129 
-480 48 129 
-432 0 129 
-432 48 129 
-384 0 129 
-432 96 129 
-576 96 129 
-528 96 129 
-528 144 129 
-576 144 129 
-480 96 129 
-480 144 129 
-528 192 129 
-480 192 129 
-432 144 129 
-384 144 129 
-432 192 129 
-768 192 129 
-720 192 129 
-720 240 129 
-768 240 129 
-672 240 129 
-624 240 129 
-624 288 129 
-768 288 129 
-720 288 129 
-720 336 129 
-768 336 129 
-672 288 129 
-672 336 129 
-624 336 129 
-576 336 129 
-528 240 129 
-576 240 129 
-480 240 129 
-432 240 129 
-432 288 129 
-576 288 129 
-528 288 129 
-528 336 129 
-480 288 129 
-480 336 129 
-528 384 129 
-480 384 129 
-432 336 129 
-384 336 129 
-432 384 129 
-336 0 129 
-336 48 129 
-384 48 129 
-288 48 129 
-240 48 129 
-192 48 129 
-240 96 129 
-384 96 129 
-336 96 129 
-336 144 129 
-288 96 129 
-288 144 129 
-288 192 129 
-240 144 129 
-240 192 129 
-192 192 129 
-144 48 129 
-96 0 129 
-96 48 129 
-48 48 129 
0 48 129 
-48 96 129 
0 96 129 
-192 96 129 
-144 96 129 
-144 144 129 
-192 144 129 
-96 96 129 
-96 144 129 
-144 192 129 
-96 192 129 
-48 144 129 
-48 192 129 
-384 192 129 
-336 192 129 
-336 240 129 
-384 240 129 
-288 240 129 
-240 240 129 
-240 288 129 
-384 288 129 
-336 288 129 
-336 336 129 
-288 288 129 
-288 336 129 
-240 336 129 
-192 336 129 
-144 240 129 
-192 240 129 
-96 240 129 
-48 240 129 
0 240 129 
-48 288 129 
-192 288 129 
-144 288 129 
-144 336 129 
-96 288 129 
-96 336 129 
-144 384 129 
-192 384 129 
-48 336 129 
-768 384 129 
-720 384 129 
-720 432 129 
-768 432 129 
-672 384 129 
-672 432 129 
-624 384 129 
-624 432 129 
-576 432 129 
-624 480 129 
-768 480 129 
-720 480 129 
-720 528 129 
-768 528 129 
-672 480 129 
-672 528 129 
-672 576 129 
-624 528 129 
-624 576 129 
-576 576 129 
-576 384 129 
-528 432 129 
-480 432 129 
-432 432 129 
-432 480 129 
-384 480 129 
-576 480 129 
-528 480 129 
-528 528 129 
-576 528 129 
-480 480 129 
-480 528 129 
-528 576 129 
-480 576 129 
-432 528 129 
-432 576 129 
-768 576 129 
-720 576 129 
-720 624 129 
-768 624 129 
-672 624 129 
-624 624 129 
-624 672 129 
-768 672 129 
-720 672 129 
-720 720 129 
-768 720 129 
-672 672 129 
-672 720 129 
-720 768 129 
-768 768 129 
-672 768 129 
-624 720 129 
-576 720 129 
-624 768 129 
-528 624 129 
-576 624 129 
-480 624 129 
-432 624 129 
-432 672 129 
-384 672 129 
-576 672 129 
-528 672 129 
-528 720 129 
-480 672 129 
-480 720 129 
-528 768 129 
-576 768 129 
-480 768 129 
-432 720 129 
-432 768 129 
-384 384 129 
-336 384 129 
-336 432 129 
-384 432 129 
-288 384 129 
-288 432 129 
-240 384 129 
-240 432 129 
-192 432 129 
-240 480 129 
-336 480 129 
-336 528 129 
-384 528 129 
-288 480 129 
-288 528 129 
-288 576 129 
-240 528 129 
-240 576 129 
-192 576 129 
-144 432 129 
-96 384 129 
-96 432 129 
-48 384 129 
-48 432 129 
0 384 129 
-48 480 129 
0 480 129 
-192 480 129 
-144 480 129 
-144 528 129 
-192 528 129 
-96 480 129 
-96 528 129 
-144 576 129 
-96 576 129 
-48 528 129 
0 528 129 
-48 576 129 
-384 576 129 
-336 576 129 
-336 624 129 
-384 624 129 
-288 624 129 
-240 624 129 
-240 672 129 
-336 672 129 
-336 720 129 
-384 720 129 
-288 672 129 
-288 720 129 
-336 768 129 
-384 768 129 
-288 768 129 
-240 720 129 
-192 720 129 
-240 768 129 
-144 624 129 
-192 624 129 
-96 624 129 
-48 624 129 
0 624 129 
-48 672 129 
0 672 129 
-192 672 129 
-144 672 129 
-144 720 129 
-96 672 129 
-96 720 129 
-144 768 129 
-192 768 129 
-96 768 129 
-48 720 129 
0 720 129 
-48 768 129 
0 768 129 
0 0 129 
48 48 129 
96 48 129 
144 48 129 
192 48 129 
144 96 129 
48 96 129 
48 144 129 
0 144 129 
96 96 129 
96 144 129 
96 192 129 
144 144 129 
144 192 129 
192 192 129 
240 48 129 
288 0 129 
288 48 129 
336 48 129 
336 96 129 
192 96 129 
240 96 129 
240 144 129 
192 144 129 
288 96 129 
288 144 129 
240 192 129 
288 192 129 
336 144 129 
384 144 129 
336 192 129 
0 192 129 
48 192 129 
48 240 129 
96 240 129 
144 240 129 
144 288 129 
0 288 129 
48 288 129 
48 336 129 
0 336 129 
96 288 129 
96 336 129 
144 336 129 
192 336 129 
240 240 129 
192 240 129 
288 240 129 
336 240 129 
336 288 129 
192 288 129 
240 288 129 
240 336 129 
288 288 129 
288 336 129 
240 384 129 
288 384 129 
336 336 129 
384 336 129 
336 384 129 
432 48 129 
384 48 129 
480 48 129 
528 0 129 
528 48 129 
576 48 129 
528 96 129 
384 96 129 
432 96 129 
432 144 129 
480 96 129 
480 144 129 
480 192 129 
528 144 129 
528 192 129 
576 192 129 
576 0 129 
624 0 129 
624 48 129 
672 48 129 
720 0 129 
720 48 129 
768 0 129 
768 48 129 
720 96 129 
768 96 129 
576 96 129 
624 96 129 
624 144 129 
576 144 129 
672 96 129 
672 144 129 
624 192 129 
672 192 129 
720 144 129 
768 144 129 
720 192 129 
768 192 129 
384 192 129 
432 192 129 
432 240 129 
384 240 129 
480 240 129 
528 240 129 
528 288 129 
384 288 129 
432 288 129 
432 336 129 
480 288 129 
480 336 129 
528 336 129 
576 336 129 
624 240 129 
576 240 129 
672 240 129 
720 240 129 
768 240 129 
720 288 129 
768 288 129 
576 288 129 
624 288 129 
624 336 129 
672 288 129 
672 336 129 
624 384 129 
576 384 129 
720 336 129 
768 336 129 
48 384 129 
48 432 129 
0 432 129 
96 384 129 
96 432 129 
144 384 129 
144 432 129 
192 432 129 
144 480 129 
48 480 129 
48 528 129 
96 480 129 
96 528 129 
96 576 129 
144 528 129 
144 576 129 
192 576 129 
192 384 129 
240 432 129 
288 432 129 
336 432 129 
336 480 129 
384 480 129 
192 480 129 
240 480 129 
240 528 129 
192 528 129 
288 480 129 
288 528 129 
240 576 129 
288 576 129 
336 528 129 
336 576 129 
0 576 129 
48 576 129 
48 624 129 
96 624 129 
144 624 129 
144 672 129 
48 672 129 
48 720 129 
96 672 129 
96 720 129 
48 768 129 
96 768 129 
144 720 129 
192 720 129 
144 768 129 
240 624 129 
192 624 129 
288 624 129 
336 624 129 
336 672 129 
384 672 129 
192 672 129 
240 672 129 
240 720 129 
288 672 129 
288 720 129 
240 768 129 
192 768 129 
288 768 129 
336 720 129 
336 768 129 
384 384 129 
432 384 129 
432 432 129 
384 432 129 
480 384 129 
480 432 129 
528 384 129 
528 432 129 
576 432 129 
528 480 129 
432 480 129 
432 528 129 
384 528 129 
480 480 129 
480 528 129 
480 576 129 
528 528 129 
528 576 129 
576 576 129 
624 432 129 
672 384 129 
672 432 129 
720 384 129 
720 432 129 
768 384 129 
768 432 129 
720 480 129 
768 480 129 
576 480 129 
624 480 129 
624 528 129 
576 528 129 
672 480 129 
672 528 129 
624 576 129 
672 576 129 
720 528 129 
768 528 129 
720 576 129 
768 576 129 
384 576 129 
432 576 129 
432 624 129 
384 624 129 
480 624 129 
528 624 129 
528 672 129 
432 672 129 
432 720 129 
384 720 129 
480 672 129 
480 720 129 
432 768 129 
384 768 129 
480 768 129 
528 720 129 
576 720 129 
528 768 129 
624 624 129 
576 624 129 
672 624 129 
720 624 129 
768 624 129 
720 672 129 
768 672 129 
576 672 129 
624 672 129 
624 720 129 
672 672 129 
672 720 129 
624 768 129 
576 768 129 
672 768 129 
720 720 129 
768 720 129 
720 768 129 
768 768 129 
3 1 0 3 
3 1 3 2 
3 4 1 2 
3 4 2 5 
3 2 3 10 
3 2 10 11 
3 5 2 11 
3 5 11 14 
3 6 4 5 
3 6 5 7 
3 20 6 7 
3 20 7 8 
3 7 5 14 
3 7 14 9 
3 8 7 9 
3 8 9 29 
3 11 10 13 
3 11 13 12 
3 14 11 12 
3 14 12 15 
3 12 13 40 
3 12 40 41 
3 15 12 41 
3 15 41 16 
3 9 14 15 
3 9 15 17 
3 29 9 17 
3 29 17 32 
3 17 15 16 
3 17 16 18 
3 32 17 18 
3 32 18 19 
3 21 20 8 
3 21 8 22 
3 23 21 22 
3 23 22 24 
3 22 8 29 
3 22 29 30 
3 24 22 30 
3 24 30 33 
3 25 23 24 
3 25 24 26 
3 27 25 26 
3 27 26 72 
3 26 24 33 
3 26 33 28 
3 72 26 28 
3 72 28 79 
3 30 29 32 
3 30 32 31 
3 33 30 31 
3 33 31 34 
3 31 32 19 
3 31 19 35 
3 34 31 35 
3 34 35 36 
3 28 33 34 
3 28 34 37 
3 79 28 37 
3 79 37 38 
3 37 34 36 
3 37 36 39 
3 38 37 39 
3 38 39 110 
3 41 40 43 
3 41 43 42 
3 16 41 42 
3 16 42 44 
3 42 43 47 
3 42 47 48 
3 44 42 48 
3 44 48 51 
3 18 16 44 
3 18 44 45 
3 19 18 45 
3 19 45 56 
3 45 44 51 
3 45 51 46 
3 56 45 46 
3 56 46 60 
3 48 47 50 
3 48 50 49 
3 51 48 49 
3 51 49 52 
3 49 50 138 
3 49 138 139 
3 52 49 139 
3 52 139 142 
3 46 51 52 
3 46 52 53 
3 60 46 53 
3 60 53 54 
3 53 52 142 
3 53 142 144 
3 54 53 144 
3 54 144 158 
3 35 19 56 
3 35 56 55 
3 36 35 55 
3 36 55 57 
3 55 56 60 
3 55 60 61 
3 57 55 61 
3 57 61 63 
3 39 36 57 
3 39 57 58 
3 110 39 58 
3 110 58 113 
3 58 57 63 
3 58 63 59 
3 113 58 59 
3 113 59 117 
3 61 60 54 
3 61 54 62 
3 63 61 62 
3 63 62 64 
3 62 54 158 
3 62 158 65 
3 64 62 65 
3 64 65 66 
3 59 63 64 
3 59 64 67 
3 117 59 67 
3 117 67 68 
3 67 64 66 
3 67 66 69 
3 68 67 69 
3 68 69 202 
3 70 27 72 
3 70 72 71 
3 73 70 71 
3 73 71 74 
3 71 72 79 
3 71 79 80 
3 74 71 80 
3 74 80 82 
3 75 73 74 
3 75 74 76 
3 88 75 76 
3 88 76 77 
3 76 74 82 
3 76 82 78 
3 77 76 78 
3 77 78 98 
3 80 79 38 
3 80 38 81 
3 82 80 81 
3 82 81 83 
3 81 38 110 
3 81 110 111 
3 83 81 111 
3 83 111 84 
3 78 82 83 
3 78 83 85 
3 98 78 85 
3 98 85 101 
3 85 83 84 
3 85 84 86 
3 101 85 86 
3 101 86 87 
3 89 88 77 
3 89 77 90 
3 91 89 90 
3 91 90 92 
3 90 77 98 
3 90 98 99 
3 92 90 99 
3 92 99 102 
3 93 91 92 
3 93 92 94 
3 95 93 94 
3 95 94 96 
3 94 92 102 
3 94 102 97 
3 96 94 97 
3 96 97 278 
3 99 98 101 
3 99 101 100 
3 102 99 100 
3 102 100 103 
3 100 101 87 
3 100 87 104 
3 103 100 104 
3 103 104 105 
3 97 102 103 
3 97 103 106 
3 278 97 106 
3 278 106 107 
3 106 103 105 
3 106 105 108 
3 107 106 108 
3 107 108 109 
3 111 110 113 
3 111 113 112 
3 84 111 112 
3 84 112 114 
3 112 113 117 
3 112 117 118 
3 114 112 118 
3 114 118 120 
3 86 84 114 
3 86 114 115 
3 87 86 115 
3 87 115 125 
3 115 114 120 
3 115 120 116 
3 125 115 116 
3 125 116 130 
3 118 117 68 
3 118 68 119 
3 120 118 119 
3 120 119 121 
3 119 68 202 
3 119 202 203 
3 121 119 203 
3 121 203 206 
3 116 120 121 
3 116 121 122 
3 130 116 122 
3 130 122 123 
3 122 121 206 
3 122 206 208 
3 123 122 208 
3 123 208 136 
3 104 87 125 
3 104 125 124 
3 105 104 124 
3 105 124 126 
3 124 125 130 
3 124 130 131 
3 126 124 131 
3 126 131 133 
3 108 105 126 
3 108 126 127 
3 109 108 127 
3 109 127 128 
3 127 126 133 
3 127 133 129 
3 128 127 129 
3 128 129 312 
3 131 130 123 
3 131 123 132 
3 133 131 132 
3 133 132 134 
3 132 123 136 
3 132 136 135 
3 134 132 135 
3 134 135 222 
3 129 133 134 
3 129 134 137 
3 312 129 137 
3 312 137 315 
3 137 134 222 
3 137 222 224 
3 315 137 224 
3 315 224 226 
3 139 138 141 
3 139 141 140 
3 142 139 140 
3 142 140 143 
3 140 141 148 
3 140 148 149 
3 143 140 149 
3 143 149 152 
3 144 142 143 
3 144 143 145 
3 158 144 145 
3 158 145 146 
3 145 143 152 
3 145 152 147 
3 146 145 147 
3 146 147 164 
3 149 148 151 
3 149 151 150 
3 152 149 150 
3 152 150 153 
3 150 151 174 
3 150 174 175 
3 153 150 175 
3 153 175 154 
3 147 152 153 
3 147 153 155 
3 164 147 155 
3 164 155 167 
3 155 153 154 
3 155 154 156 
3 167 155 156 
3 167 156 157 
3 65 158 146 
3 65 146 159 
3 66 65 159 
3 66 159 160 
3 159 146 164 
3 159 164 165 
3 160 159 165 
3 160 165 168 
3 69 66 160 
3 69 160 161 
3 202 69 161 
3 202 161 205 
3 161 160 168 
3 161 168 162 
3 205 161 162 
3 205 162 163 
3 165 164 167 
3 165 167 166 
3 168 165 166 
3 168 166 169 
3 166 167 157 
3 166 157 170 
3 169 166 170 
3 169 170 171 
3 162 168 169 
3 162 169 172 
3 163 162 172 
3 163 172 214 
3 172 169 171 
3 172 171 173 
3 214 172 173 
3 214 173 239 
3 175 174 177 
3 175 177 176 
3 154 175 176 
3 154 176 178 
3 176 177 181 
3 176 181 182 
3 178 176 182 
3 178 182 185 
3 156 154 178 
3 156 178 179 
3 157 156 179 
3 157 179 190 
3 179 178 185 
3 179 185 180 
3 190 179 180 
3 190 180 195 
3 182 181 184 
3 182 184 183 
3 185 182 183 
3 185 183 186 
3 183 184 544 
3 183 544 545 
3 186 183 545 
3 186 545 548 
3 180 185 186 
3 180 186 187 
3 195 180 187 
3 195 187 188 
3 187 186 548 
3 187 548 550 
3 188 187 550 
3 188 550 200 
3 170 157 190 
3 170 190 189 
3 171 170 189 
3 171 189 191 
3 189 190 195 
3 189 195 196 
3 191 189 196 
3 191 196 198 
3 173 171 191 
3 173 191 192 
3 239 173 192 
3 239 192 242 
3 192 191 198 
3 192 198 193 
3 242 192 193 
3 242 193 194 
3 196 195 188 
3 196 188 197 
3 198 196 197 
3 198 197 199 
3 197 188 200 
3 197 200 564 
3 199 197 564 
3 199 564 566 
3 193 198 199 
3 193 199 201 
3 194 193 201 
3 194 201 248 
3 201 199 566 
3 201 566 568 
3 248 201 568 
3 248 568 570 
3 203 202 205 
3 203 205 204 
3 206 203 204 
3 206 204 207 
3 204 205 163 
3 204 163 212 
3 207 204 212 
3 207 212 215 
3 208 206 207 
3 208 207 209 
3 136 208 209 
3 136 209 210 
3 209 207 215 
3 209 215 211 
3 210 209 211 
3 210 211 229 
3 212 163 214 
3 212 214 213 
3 215 212 213 
3 215 213 216 
3 213 214 239 
3 213 239 240 
3 216 213 240 
3 216 240 217 
3 211 215 216 
3 211 216 218 
3 229 211 218 
3 229 218 232 
3 218 216 217 
3 218 217 219 
3 232 218 219 
3 232 219 220 
3 135 136 210 
3 135 210 221 
3 222 135 221 
3 222 221 223 
3 221 210 229 
3 221 229 230 
3 223 221 230 
3 223 230 233 
3 224 222 223 
3 224 223 225 
3 226 224 225 
3 226 225 227 
3 225 223 233 
3 225 233 228 
3 227 225 228 
3 227 228 414 
3 230 229 232 
3 230 232 231 
3 233 230 231 
3 233 231 234 
3 231 232 220 
3 231 220 235 
3 234 231 235 
3 234 235 236 
3 228 233 234 
3 228 234 237 
3 414 228 237 
3 414 237 417 
3 237 234 236 
3 237 236 238 
3 417 237 238 
3 417 238 440 
3 240 239 242 
3 240 242 241 
3 217 240 241 
3 217 241 243 
3 241 242 194 
3 241 194 246 
3 243 241 246 
3 243 246 249 
3 219 217 243 
3 219 243 244 
3 220 219 244 
3 220 244 256 
3 244 243 249 
3 244 249 245 
3 256 244 245 
3 256 245 261 
3 246 194 248 
3 246 248 247 
3 249 246 247 
3 249 247 250 
3 247 248 570 
3 247 570 613 
3 250 247 613 
3 250 613 251 
3 245 249 250 
3 245 250 252 
3 261 245 252 
3 261 252 253 
3 252 250 251 
3 252 251 254 
3 253 252 254 
3 253 254 267 
3 235 220 256 
3 235 256 255 
3 236 235 255 
3 236 255 257 
3 255 256 261 
3 255 261 262 
3 257 255 262 
3 257 262 264 
3 238 236 257 
3 238 257 258 
3 440 238 258 
3 440 258 259 
3 258 257 264 
3 258 264 260 
3 259 258 260 
3 259 260 446 
3 262 261 253 
3 262 253 263 
3 264 262 263 
3 264 263 265 
3 263 253 267 
3 263 267 266 
3 265 263 266 
3 265 266 630 
3 260 264 265 
3 260 265 268 
3 446 260 268 
3 446 268 449 
3 268 265 630 
3 268 630 269 
3 449 268 269 
3 449 269 820 
3 270 95 96 
3 270 96 271 
3 272 270 271 
3 272 271 273 
3 271 96 278 
3 271 278 279 
3 273 271 279 
3 273 279 281 
3 274 272 273 
3 274 273 275 
3 287 274 275 
3 287 275 276 
3 275 273 281 
3 275 281 277 
3 276 275 277 
3 276 277 296 
3 279 278 107 
3 279 107 280 
3 281 279 280 
3 281 280 282 
3 280 107 109 
3 280 109 307 
3 282 280 307 
3 282 307 283 
3 277 281 282 
3 277 282 284 
3 296 277 284 
3 296 284 299 
3 284 282 283 
3 284 283 285 
3 299 284 285 
3 299 285 286 
3 288 287 276 
3 288 276 289 
3 290 288 289 
3 290 289 291 
3 289 276 296 
3 289 296 297 
3 291 289 297 
3 291 297 300 
3 292 290 291 
3 292 291 293 
3 294 292 293 
3 294 293 337 
3 293 291 300 
3 293 300 295 
3 337 293 295 
3 337 295 344 
3 297 296 299 
3 297 299 298 
3 300 297 298 
3 300 298 301 
3 298 299 286 
3 298 286 302 
3 301 298 302 
3 301 302 303 
3 295 300 301 
3 295 301 304 
3 344 295 304 
3 344 304 305 
3 304 301 303 
3 304 303 306 
3 305 304 306 
3 305 306 376 
3 307 109 128 
3 307 128 308 
3 283 307 308 
3 283 308 309 
3 308 128 312 
3 308 312 313 
3 309 308 313 
3 309 313 316 
3 285 283 309 
3 285 309 310 
3 286 285 310 
3 286 310 321 
3 310 309 316 
3 310 316 311 
3 321 310 311 
3 321 311 325 
3 313 312 315 
3 313 315 314 
3 316 313 314 
3 316 314 317 
3 314 315 226 
3 314 226 406 
3 317 314 406 
3 317 406 408 
3 311 316 317 
3 311 317 318 
3 325 311 318 
3 325 318 319 
3 318 317 408 
3 318 408 410 
3 319 318 410 
3 319 410 424 
3 302 286 321 
3 302 321 320 
3 303 302 320 
3 303 320 322 
3 320 321 325 
3 320 325 326 
3 322 320 326 
3 322 326 328 
3 306 303 322 
3 306 322 323 
3 376 306 323 
3 376 323 379 
3 323 322 328 
3 323 328 324 
3 379 323 324 
3 379 324 383 
3 326 325 319 
3 326 319 327 
3 328 326 327 
3 328 327 329 
3 327 319 424 
3 327 424 330 
3 329 327 330 
3 329 330 331 
3 324 328 329 
3 324 329 332 
3 383 324 332 
3 383 332 333 
3 332 329 331 
3 332 331 334 
3 333 332 334 
3 333 334 472 
3 335 294 337 
3 335 337 336 
3 338 335 336 
3 338 336 339 
3 336 337 344 
3 336 344 345 
3 339 336 345 
3 339 345 347 
3 340 338 339 
3 340 339 341 
3 353 340 341 
3 353 341 342 
3 341 339 347 
3 341 347 343 
3 342 341 343 
3 342 343 364 
3 345 344 305 
3 345 305 346 
3 347 345 346 
3 347 346 348 
3 346 305 376 
3 346 376 377 
3 348 346 377 
3 348 377 349 
3 343 347 348 
3 343 348 350 
3 364 343 350 
3 364 350 367 
3 350 348 349 
3 350 349 351 
3 367 350 351 
3 367 351 352 
3 354 353 342 
3 354 342 355 
3 356 354 355 
3 356 355 357 
3 355 342 364 
3 355 364 365 
3 357 355 365 
3 357 365 368 
3 358 356 357 
3 358 357 359 
3 360 358 359 
3 360 359 361 
3 359 357 368 
3 359 368 362 
3 361 359 362 
3 361 362 363 
3 365 364 367 
3 365 367 366 
3 368 365 366 
3 368 366 369 
3 366 367 352 
3 366 352 370 
3 369 366 370 
3 369 370 371 
3 362 368 369 
3 362 369 372 
3 363 362 372 
3 363 372 373 
3 372 369 371 
3 372 371 374 
3 373 372 374 
3 373 374 375 
3 377 376 379 
3 377 379 378 
3 349 377 378 
3 349 378 380 
3 378 379 383 
3 378 383 384 
3 380 378 384 
3 380 384 386 
3 351 349 380 
3 351 380 381 
3 352 351 381 
3 352 381 391 
3 381 380 386 
3 381 386 382 
3 391 381 382 
3 391 382 397 
3 384 383 333 
3 384 333 385 
3 386 384 385 
3 386 385 387 
3 385 333 472 
3 385 472 473 
3 387 385 473 
3 387 473 476 
3 382 386 387 
3 382 387 388 
3 397 382 388 
3 397 388 389 
3 388 387 476 
3 388 476 478 
3 389 388 478 
3 389 478 403 
3 370 352 391 
3 370 391 390 
3 371 370 390 
3 371 390 392 
3 390 391 397 
3 390 397 398 
3 392 390 398 
3 392 398 400 
3 374 371 392 
3 374 392 393 
3 375 374 393 
3 375 393 394 
3 393 392 400 
3 393 400 395 
3 394 393 395 
3 394 395 396 
3 398 397 389 
3 398 389 399 
3 400 398 399 
3 400 399 401 
3 399 389 403 
3 399 403 402 
3 401 399 402 
3 401 402 492 
3 395 400 401 
3 395 401 404 
3 396 395 404 
3 396 404 405 
3 404 401 492 
3 404 492 494 
3 405 404 494 
3 405 494 496 
3 406 226 227 
3 406 227 407 
3 408 406 407 
3 408 407 409 
3 407 227 414 
3 407 414 415 
3 409 407 415 
3 409 415 418 
3 410 408 409 
3 410 409 411 
3 424 410 411 
3 424 411 412 
3 411 409 418 
3 411 418 413 
3 412 411 413 
3 412 413 430 
3 415 414 417 
3 415 417 416 
3 418 415 416 
3 418 416 419 
3 416 417 440 
3 416 440 441 
3 419 416 441 
3 419 441 420 
3 413 418 419 
3 413 419 421 
3 430 413 421 
3 430 421 433 
3 421 419 420 
3 421 420 422 
3 433 421 422 
3 433 422 423 
3 330 424 412 
3 330 412 425 
3 331 330 425 
3 331 425 426 
3 425 412 430 
3 425 430 431 
3 426 425 431 
3 426 431 434 
3 334 331 426 
3 334 426 427 
3 472 334 427 
3 472 427 475 
3 427 426 434 
3 427 434 428 
3 475 427 428 
3 475 428 429 
3 431 430 433 
3 431 433 432 
3 434 431 432 
3 434 432 435 
3 432 433 423 
3 432 423 436 
3 435 432 436 
3 435 436 437 
3 428 434 435 
3 428 435 438 
3 429 428 438 
3 429 438 484 
3 438 435 437 
3 438 437 439 
3 484 438 439 
3 484 439 512 
3 441 440 259 
3 441 259 442 
3 420 441 442 
3 420 442 443 
3 442 259 446 
3 442 446 447 
3 443 442 447 
3 443 447 450 
3 422 420 443 
3 422 443 444 
3 423 422 444 
3 423 444 458 
3 444 443 450 
3 444 450 445 
3 458 444 445 
3 458 445 463 
3 447 446 449 
3 447 449 448 
3 450 447 448 
3 450 448 451 
3 448 449 820 
3 448 820 452 
3 451 448 452 
3 451 452 453 
3 445 450 451 
3 445 451 454 
3 463 445 454 
3 463 454 455 
3 454 451 453 
3 454 453 456 
3 455 454 456 
3 455 456 469 
3 436 423 458 
3 436 458 457 
3 437 436 457 
3 437 457 459 
3 457 458 463 
3 457 463 464 
3 459 457 464 
3 459 464 466 
3 439 437 459 
3 439 459 460 
3 512 439 460 
3 512 460 515 
3 460 459 466 
3 460 466 461 
3 515 460 461 
3 515 461 462 
3 464 463 455 
3 464 455 465 
3 466 464 465 
3 466 465 467 
3 465 455 469 
3 465 469 468 
3 467 465 468 
3 467 468 836 
3 461 466 467 
3 461 467 470 
3 462 461 470 
3 462 470 521 
3 470 467 836 
3 470 836 471 
3 521 470 471 
3 521 471 525 
3 473 472 475 
3 473 475 474 
3 476 473 474 
3 476 474 477 
3 474 475 429 
3 474 429 482 
3 477 474 482 
3 477 482 485 
3 478 476 477 
3 478 477 479 
3 403 478 479 
3 403 479 480 
3 479 477 485 
3 479 485 481 
3 480 479 481 
3 480 481 500 
3 482 429 484 
3 482 484 483 
3 485 482 483 
3 485 483 486 
3 483 484 512 
3 483 512 513 
3 486 483 513 
3 486 513 487 
3 481 485 486 
3 481 486 488 
3 500 481 488 
3 500 488 503 
3 488 486 487 
3 488 487 489 
3 503 488 489 
3 503 489 490 
3 402 403 480 
3 402 480 491 
3 492 402 491 
3 492 491 493 
3 491 480 500 
3 491 500 501 
3 493 491 501 
3 493 501 504 
3 494 492 493 
3 494 493 495 
3 496 494 495 
3 496 495 497 
3 495 493 504 
3 495 504 498 
3 497 495 498 
3 497 498 499 
3 501 500 503 
3 501 503 502 
3 504 501 502 
3 504 502 505 
3 502 503 490 
3 502 490 506 
3 505 502 506 
3 505 506 507 
3 498 504 505 
3 498 505 508 
3 499 498 508 
3 499 508 509 
3 508 505 507 
3 508 507 510 
3 509 508 510 
3 509 510 511 
3 513 512 515 
3 513 515 514 
3 487 513 514 
3 487 514 516 
3 514 515 462 
3 514 462 519 
3 516 514 519 
3 516 519 522 
3 489 487 516 
3 489 516 517 
3 490 489 517 
3 490 517 530 
3 517 516 522 
3 517 522 518 
3 530 517 518 
3 530 518 536 
3 519 462 521 
3 519 521 520 
3 522 519 520 
3 522 520 523 
3 520 521 525 
3 520 525 524 
3 523 520 524 
3 523 524 526 
3 518 522 523 
3 518 523 527 
3 536 518 527 
3 536 527 528 
3 527 523 526 
3 527 526 883 
3 528 527 883 
3 528 883 896 
3 506 490 530 
3 506 530 529 
3 507 506 529 
3 507 529 531 
3 529 530 536 
3 529 536 537 
3 531 529 537 
3 531 537 539 
3 510 507 531 
3 510 531 532 
3 511 510 532 
3 511 532 533 
3 532 531 539 
3 532 539 534 
3 533 532 534 
3 533 534 535 
3 537 536 528 
3 537 528 538 
3 539 537 538 
3 539 538 540 
3 538 528 896 
3 538 896 897 
3 540 538 897 
3 540 897 541 
3 534 539 540 
3 534 540 542 
3 535 534 542 
3 535 542 543 
3 542 540 541 
3 542 541 900 
3 543 542 900 
3 543 900 902 
3 545 544 547 
3 545 547 546 
3 548 545 546 
3 548 546 549 
3 546 547 554 
3 546 554 555 
3 549 546 555 
3 549 555 558 
3 550 548 549 
3 550 549 551 
3 200 550 551 
3 200 551 552 
3 551 549 558 
3 551 558 553 
3 552 551 553 
3 552 553 572 
3 555 554 557 
3 555 557 556 
3 558 555 556 
3 558 556 559 
3 556 557 583 
3 556 583 584 
3 559 556 584 
3 559 584 560 
3 553 558 559 
3 553 559 561 
3 572 553 561 
3 572 561 575 
3 561 559 560 
3 561 560 562 
3 575 561 562 
3 575 562 563 
3 564 200 552 
3 564 552 565 
3 566 564 565 
3 566 565 567 
3 565 552 572 
3 565 572 573 
3 567 565 573 
3 567 573 576 
3 568 566 567 
3 568 567 569 
3 570 568 569 
3 570 569 615 
3 569 567 576 
3 569 576 571 
3 615 569 571 
3 615 571 620 
3 573 572 575 
3 573 575 574 
3 576 573 574 
3 576 574 577 
3 574 575 563 
3 574 563 578 
3 577 574 578 
3 577 578 579 
3 571 576 577 
3 571 577 580 
3 620 571 580 
3 620 580 581 
3 580 577 579 
3 580 579 582 
3 581 580 582 
3 581 582 646 
3 584 583 586 
3 584 586 585 
3 560 584 585 
3 560 585 587 
3 585 586 590 
3 585 590 591 
3 587 585 591 
3 587 591 594 
3 562 560 587 
3 562 587 588 
3 563 562 588 
3 563 588 599 
3 588 587 594 
3 588 594 589 
3 599 588 589 
3 599 589 603 
3 591 590 593 
3 591 593 592 
3 594 591 592 
3 594 592 595 
3 592 593 674 
3 592 674 675 
3 595 592 675 
3 595 675 678 
3 589 594 595 
3 589 595 596 
3 603 589 596 
3 603 596 597 
3 596 595 678 
3 596 678 680 
3 597 596 680 
3 597 680 694 
3 578 563 599 
3 578 599 598 
3 579 578 598 
3 579 598 600 
3 598 599 603 
3 598 603 604 
3 600 598 604 
3 600 604 606 
3 582 579 600 
3 582 600 601 
3 646 582 601 
3 646 601 649 
3 601 600 606 
3 601 606 602 
3 649 601 602 
3 649 602 653 
3 604 603 597 
3 604 597 605 
3 606 604 605 
3 606 605 607 
3 605 597 694 
3 605 694 608 
3 607 605 608 
3 607 608 609 
3 602 606 607 
3 602 607 610 
3 653 602 610 
3 653 610 611 
3 610 607 609 
3 610 609 612 
3 611 610 612 
3 611 612 745 
3 613 570 615 
3 613 615 614 
3 251 613 614 
3 251 614 616 
3 614 615 620 
3 614 620 621 
3 616 614 621 
3 616 621 623 
3 254 251 616 
3 254 616 617 
3 267 254 617 
3 267 617 618 
3 617 616 623 
3 617 623 619 
3 618 617 619 
3 618 619 636 
3 621 620 581 
3 621 581 622 
3 623 621 622 
3 623 622 624 
3 622 581 646 
3 622 646 647 
3 624 622 647 
3 624 647 625 
3 619 623 624 
3 619 624 626 
3 636 619 626 
3 636 626 639 
3 626 624 625 
3 626 625 627 
3 639 626 627 
3 639 627 628 
3 266 267 618 
3 266 618 629 
3 630 266 629 
3 630 629 631 
3 629 618 636 
3 629 636 637 
3 631 629 637 
3 631 637 640 
3 269 630 631 
3 269 631 632 
3 820 269 632 
3 820 632 633 
3 632 631 640 
3 632 640 634 
3 633 632 634 
3 633 634 635 
3 637 636 639 
3 637 639 638 
3 640 637 638 
3 640 638 641 
3 638 639 628 
3 638 628 642 
3 641 638 642 
3 641 642 643 
3 634 640 641 
3 634 641 644 
3 635 634 644 
3 635 644 828 
3 644 641 643 
3 644 643 645 
3 828 644 645 
3 828 645 851 
3 647 646 649 
3 647 649 648 
3 625 647 648 
3 625 648 650 
3 648 649 653 
3 648 653 654 
3 650 648 654 
3 650 654 656 
3 627 625 650 
3 627 650 651 
3 628 627 651 
3 628 651 661 
3 651 650 656 
3 651 656 652 
3 661 651 652 
3 661 652 666 
3 654 653 611 
3 654 611 655 
3 656 654 655 
3 656 655 657 
3 655 611 745 
3 655 745 746 
3 657 655 746 
3 657 746 749 
3 652 656 657 
3 652 657 658 
3 666 652 658 
3 666 658 659 
3 658 657 749 
3 658 749 751 
3 659 658 751 
3 659 751 672 
3 642 628 661 
3 642 661 660 
3 643 642 660 
3 643 660 662 
3 660 661 666 
3 660 666 667 
3 662 660 667 
3 662 667 669 
3 645 643 662 
3 645 662 663 
3 851 645 663 
3 851 663 664 
3 663 662 669 
3 663 669 665 
3 664 663 665 
3 664 665 857 
3 667 666 659 
3 667 659 668 
3 669 667 668 
3 669 668 670 
3 668 659 672 
3 668 672 671 
3 670 668 671 
3 670 671 765 
3 665 669 670 
3 665 670 673 
3 857 665 673 
3 857 673 860 
3 673 670 765 
3 673 765 767 
3 860 673 767 
3 860 767 769 
3 675 674 677 
3 675 677 676 
3 678 675 676 
3 678 676 679 
3 676 677 684 
3 676 684 685 
3 679 676 685 
3 679 685 688 
3 680 678 679 
3 680 679 681 
3 694 680 681 
3 694 681 682 
3 681 679 688 
3 681 688 683 
3 682 681 683 
3 682 683 700 
3 685 684 687 
3 685 687 686 
3 688 685 686 
3 688 686 689 
3 686 687 710 
3 686 710 711 
3 689 686 711 
3 689 711 690 
3 683 688 689 
3 683 689 691 
3 700 683 691 
3 700 691 703 
3 691 689 690 
3 691 690 692 
3 703 691 692 
3 703 692 693 
3 608 694 682 
3 608 682 695 
3 609 608 695 
3 609 695 696 
3 695 682 700 
3 695 700 701 
3 696 695 701 
3 696 701 704 
3 612 609 696 
3 612 696 697 
3 745 612 697 
3 745 697 748 
3 697 696 704 
3 697 704 698 
3 748 697 698 
3 748 698 699 
3 701 700 703 
3 701 703 702 
3 704 701 702 
3 704 702 705 
3 702 703 693 
3 702 693 706 
3 705 702 706 
3 705 706 707 
3 698 704 705 
3 698 705 708 
3 699 698 708 
3 699 708 757 
3 708 705 707 
3 708 707 709 
3 757 708 709 
3 757 709 783 
3 711 710 713 
3 711 713 712 
3 690 711 712 
3 690 712 714 
3 712 713 717 
3 712 717 718 
3 714 712 718 
3 714 718 721 
3 692 690 714 
3 692 714 715 
3 693 692 715 
3 693 715 730 
3 715 714 721 
3 715 721 716 
3 730 715 716 
3 730 716 735 
3 718 717 720 
3 718 720 719 
3 721 718 719 
3 721 719 722 
3 719 720 724 
3 719 724 723 
3 722 719 723 
3 722 723 725 
3 716 721 722 
3 716 722 726 
3 735 716 726 
3 735 726 727 
3 726 722 725 
3 726 725 728 
3 727 726 728 
3 727 728 741 
3 706 693 730 
3 706 730 729 
3 707 706 729 
3 707 729 731 
3 729 730 735 
3 729 735 736 
3 731 729 736 
3 731 736 738 
3 709 707 731 
3 709 731 732 
3 783 709 732 
3 783 732 786 
3 732 731 738 
3 732 738 733 
3 786 732 733 
3 786 733 734 
3 736 735 727 
3 736 727 737 
3 738 736 737 
3 738 737 739 
3 737 727 741 
3 737 741 740 
3 739 737 740 
3 739 740 742 
3 733 738 739 
3 733 739 743 
3 734 733 743 
3 734 743 792 
3 743 739 742 
3 743 742 744 
3 792 743 744 
3 792 744 796 
3 746 745 748 
3 746 748 747 
3 749 746 747 
3 749 747 750 
3 747 748 699 
3 747 699 755 
3 750 747 755 
3 750 755 758 
3 751 749 750 
3 751 750 752 
3 672 751 752 
3 672 752 753 
3 752 750 758 
3 752 758 754 
3 753 752 754 
3 753 754 772 
3 755 699 757 
3 755 757 756 
3 758 755 756 
3 758 756 759 
3 756 757 783 
3 756 783 784 
3 759 756 784 
3 759 784 760 
3 754 758 759 
3 754 759 761 
3 772 754 761 
3 772 761 775 
3 761 759 760 
3 761 760 762 
3 775 761 762 
3 775 762 763 
3 671 672 753 
3 671 753 764 
3 765 671 764 
3 765 764 766 
3 764 753 772 
3 764 772 773 
3 766 764 773 
3 766 773 776 
3 767 765 766 
3 767 766 768 
3 769 767 768 
3 769 768 950 
3 768 766 776 
3 768 776 770 
3 950 768 770 
3 950 770 771 
3 773 772 775 
3 773 775 774 
3 776 773 774 
3 776 774 777 
3 774 775 763 
3 774 763 778 
3 777 774 778 
3 777 778 779 
3 770 776 777 
3 770 777 780 
3 771 770 780 
3 771 780 781 
3 780 777 779 
3 780 779 782 
3 781 780 782 
3 781 782 981 
3 784 783 786 
3 784 786 785 
3 760 784 785 
3 760 785 787 
3 785 786 734 
3 785 734 790 
3 787 785 790 
3 787 790 793 
3 762 760 787 
3 762 787 788 
3 763 762 788 
3 763 788 802 
3 788 787 793 
3 788 793 789 
3 802 788 789 
3 802 789 808 
3 790 734 792 
3 790 792 791 
3 793 790 791 
3 793 791 794 
3 791 792 796 
3 791 796 795 
3 794 791 795 
3 794 795 797 
3 789 793 794 
3 789 794 798 
3 808 789 798 
3 808 798 799 
3 798 794 797 
3 798 797 800 
3 799 798 800 
3 799 800 814 
3 778 763 802 
3 778 802 801 
3 779 778 801 
3 779 801 803 
3 801 802 808 
3 801 808 809 
3 803 801 809 
3 803 809 811 
3 782 779 803 
3 782 803 804 
3 981 782 804 
3 981 804 805 
3 804 803 811 
3 804 811 806 
3 805 804 806 
3 805 806 807 
3 809 808 799 
3 809 799 810 
3 811 809 810 
3 811 810 812 
3 810 799 814 
3 810 814 813 
3 812 810 813 
3 812 813 815 
3 806 811 812 
3 806 812 816 
3 807 806 816 
3 807 816 817 
3 816 812 815 
3 816 815 818 
3 817 816 818 
3 817 818 819 
3 452 820 633 
3 452 633 821 
3 453 452 821 
3 453 821 822 
3 821 633 635 
3 821 635 826 
3 822 821 826 
3 822 826 829 
3 456 453 822 
3 456 822 823 
3 469 456 823 
3 469 823 824 
3 823 822 829 
3 823 829 825 
3 824 823 825 
3 824 825 840 
3 826 635 828 
3 826 828 827 
3 829 826 827 
3 829 827 830 
3 827 828 851 
3 827 851 852 
3 830 827 852 
3 830 852 831 
3 825 829 830 
3 825 830 832 
3 840 825 832 
3 840 832 843 
3 832 830 831 
3 832 831 833 
3 843 832 833 
3 843 833 834 
3 468 469 824 
3 468 824 835 
3 836 468 835 
3 836 835 837 
3 835 824 840 
3 835 840 841 
3 837 835 841 
3 837 841 844 
3 471 836 837 
3 471 837 838 
3 525 471 838 
3 525 838 881 
3 838 837 844 
3 838 844 839 
3 881 838 839 
3 881 839 887 
3 841 840 843 
3 841 843 842 
3 844 841 842 
3 844 842 845 
3 842 843 834 
3 842 834 846 
3 845 842 846 
3 845 846 847 
3 839 844 845 
3 839 845 848 
3 887 839 848 
3 887 848 849 
3 848 845 847 
3 848 847 850 
3 849 848 850 
3 849 850 918 
3 852 851 664 
3 852 664 853 
3 831 852 853 
3 831 853 854 
3 853 664 857 
3 853 857 858 
3 854 853 858 
3 854 858 861 
3 833 831 854 
3 833 854 855 
3 834 833 855 
3 834 855 866 
3 855 854 861 
3 855 861 856 
3 866 855 856 
3 866 856 870 
3 858 857 860 
3 858 860 859 
3 861 858 859 
3 861 859 862 
3 859 860 769 
3 859 769 948 
3 862 859 948 
3 862 948 951 
3 856 861 862 
3 856 862 863 
3 870 856 863 
3 870 863 864 
3 863 862 951 
3 863 951 953 
3 864 863 953 
3 864 953 965 
3 846 834 866 
3 846 866 865 
3 847 846 865 
3 847 865 867 
3 865 866 870 
3 865 870 871 
3 867 865 871 
3 867 871 873 
3 850 847 867 
3 850 867 868 
3 918 850 868 
3 918 868 921 
3 868 867 873 
3 868 873 869 
3 921 868 869 
3 921 869 925 
3 871 870 864 
3 871 864 872 
3 873 871 872 
3 873 872 874 
3 872 864 965 
3 872 965 875 
3 874 872 875 
3 874 875 876 
3 869 873 874 
3 869 874 877 
3 925 869 877 
3 925 877 878 
3 877 874 876 
3 877 876 879 
3 878 877 879 
3 878 879 1012 
3 524 525 881 
3 524 881 880 
3 526 524 880 
3 526 880 882 
3 880 881 887 
3 880 887 888 
3 882 880 888 
3 882 888 890 
3 883 526 882 
3 883 882 884 
3 896 883 884 
3 896 884 885 
3 884 882 890 
3 884 890 886 
3 885 884 886 
3 885 886 906 
3 888 887 849 
3 888 849 889 
3 890 888 889 
3 890 889 891 
3 889 849 918 
3 889 918 919 
3 891 889 919 
3 891 919 892 
3 886 890 891 
3 886 891 893 
3 906 886 893 
3 906 893 909 
3 893 891 892 
3 893 892 894 
3 909 893 894 
3 909 894 895 
3 897 896 885 
3 897 885 898 
3 541 897 898 
3 541 898 899 
3 898 885 906 
3 898 906 907 
3 899 898 907 
3 899 907 910 
3 900 541 899 
3 900 899 901 
3 902 900 901 
3 902 901 903 
3 901 899 910 
3 901 910 904 
3 903 901 904 
3 903 904 905 
3 907 906 909 
3 907 909 908 
3 910 907 908 
3 910 908 911 
3 908 909 895 
3 908 895 912 
3 911 908 912 
3 911 912 913 
3 904 910 911 
3 904 911 914 
3 905 904 914 
3 905 914 915 
3 914 911 913 
3 914 913 916 
3 915 914 916 
3 915 916 917 
3 919 918 921 
3 919 921 920 
3 892 919 920 
3 892 920 922 
3 920 921 925 
3 920 925 926 
3 922 920 926 
3 922 926 928 
3 894 892 922 
3 894 922 923 
3 895 894 923 
3 895 923 933 
3 923 922 928 
3 923 928 924 
3 933 923 924 
3 933 924 939 
3 926 925 878 
3 926 878 927 
3 928 926 927 
3 928 927 929 
3 927 878 1012 
3 927 1012 1013 
3 929 927 1013 
3 929 1013 1016 
3 924 928 929 
3 924 929 930 
3 939 924 930 
3 939 930 931 
3 930 929 1016 
3 930 1016 1018 
3 931 930 1018 
3 931 1018 945 
3 912 895 933 
3 912 933 932 
3 913 912 932 
3 913 932 934 
3 932 933 939 
3 932 939 940 
3 934 932 940 
3 934 940 942 
3 916 913 934 
3 916 934 935 
3 917 916 935 
3 917 935 936 
3 935 934 942 
3 935 942 937 
3 936 935 937 
3 936 937 938 
3 940 939 931 
3 940 931 941 
3 942 940 941 
3 942 941 943 
3 941 931 945 
3 941 945 944 
3 943 941 944 
3 943 944 1032 
3 937 942 943 
3 937 943 946 
3 938 937 946 
3 938 946 947 
3 946 943 1032 
3 946 1032 1034 
3 947 946 1034 
3 947 1034 1036 
3 948 769 950 
3 948 950 949 
3 951 948 949 
3 951 949 952 
3 949 950 771 
3 949 771 957 
3 952 949 957 
3 952 957 959 
3 953 951 952 
3 953 952 954 
3 965 953 954 
3 965 954 955 
3 954 952 959 
3 954 959 956 
3 955 954 956 
3 955 956 971 
3 957 771 781 
3 957 781 958 
3 959 957 958 
3 959 958 960 
3 958 781 981 
3 958 981 982 
3 960 958 982 
3 960 982 961 
3 956 959 960 
3 956 960 962 
3 971 956 962 
3 971 962 974 
3 962 960 961 
3 962 961 963 
3 974 962 963 
3 974 963 964 
3 875 965 955 
3 875 955 966 
3 876 875 966 
3 876 966 967 
3 966 955 971 
3 966 971 972 
3 967 966 972 
3 967 972 975 
3 879 876 967 
3 879 967 968 
3 1012 879 968 
3 1012 968 1015 
3 968 967 975 
3 968 975 969 
3 1015 968 969 
3 1015 969 970 
3 972 971 974 
3 972 974 973 
3 975 972 973 
3 975 973 976 
3 973 974 964 
3 973 964 977 
3 976 973 977 
3 976 977 978 
3 969 975 976 
3 969 976 979 
3 970 969 979 
3 970 979 1024 
3 979 976 978 
3 979 978 980 
3 1024 979 980 
3 1024 980 1052 
3 982 981 805 
3 982 805 983 
3 961 982 983 
3 961 983 984 
3 983 805 807 
3 983 807 987 
3 984 983 987 
3 984 987 989 
3 963 961 984 
3 963 984 985 
3 964 963 985 
3 964 985 997 
3 985 984 989 
3 985 989 986 
3 997 985 986 
3 997 986 1002 
3 987 807 817 
3 987 817 988 
3 989 987 988 
3 989 988 990 
3 988 817 819 
3 988 819 991 
3 990 988 991 
3 990 991 992 
3 986 989 990 
3 986 990 993 
3 1002 986 993 
3 1002 993 994 
3 993 990 992 
3 993 992 995 
3 994 993 995 
3 994 995 1008 
3 977 964 997 
3 977 997 996 
3 978 977 996 
3 978 996 998 
3 996 997 1002 
3 996 1002 1003 
3 998 996 1003 
3 998 1003 1005 
3 980 978 998 
3 980 998 999 
3 1052 980 999 
3 1052 999 1055 
3 999 998 1005 
3 999 1005 1000 
3 1055 999 1000 
3 1055 1000 1001 
3 1003 1002 994 
3 1003 994 1004 
3 1005 1003 1004 
3 1005 1004 1006 
3 1004 994 1008 
3 1004 1008 1007 
3 1006 1004 1007 
3 1006 1007 1009 
3 1000 1005 1006 
3 1000 1006 1010 
3 1001 1000 1010 
3 1001 1010 1061 
3 1010 1006 1009 
3 1010 1009 1011 
3 1061 1010 1011 
3 1061 1011 1065 
3 1013 1012 1015 
3 1013 1015 1014 
3 1016 1013 1014 
3 1016 1014 1017 
3 1014 1015 970 
3 1014 970 1022 
3 1017 1014 1022 
3 1017 1022 1025 
3 1018 1016 1017 
3 1018 1017 1019 
3 945 1018 1019 
3 945 1019 1020 
3 1019 1017 1025 
3 1019 1025 1021 
3 1020 1019 1021 
3 1020 1021 1040 
3 1022 970 1024 
3 1022 1024 1023 
3 1025 1022 1023 
3 1025 1023 1026 
3 1023 1024 1052 
3 1023 1052 1053 
3 1026 1023 1053 
3 1026 1053 1027 
3 1021 1025 1026 
3 1021 1026 1028 
3 1040 1021 1028 
3 1040 1028 1043 
3 1028 1026 1027 
3 1028 1027 1029 
3 1043 1028 1029 
3 1043 1029 1030 
3 944 945 1020 
3 944 1020 1031 
3 1032 944 1031 
3 1032 1031 1033 
3 1031 1020 1040 
3 1031 1040 1041 
3 1033 1031 1041 
3 1033 1041 1044 
3 1034 1032 1033 
3 1034 1033 1035 
3 1036 1034 1035 
3 1036 1035 1037 
3 1035 1033 1044 
3 1035 1044 1038 
3 1037 1035 1038 
3 1037 1038 1039 
3 1041 1040 1043 
3 1041 1043 1042 
3 1044 1041 1042 
3 1044 1042 1045 
3 1042 1043 1030 
3 1042 1030 1046 
3 1045 1042 1046 
3 1045 1046 1047 
3 1038 1044 1045 
3 1038 1045 1048 
3 1039 1038 1048 
3 1039 1048 1049 
3 1048 1045 1047 
3 1048 1047 1050 
3 1049 1048 1050 
3 1049 1050 1051 
3 1053 1052 1055 
3 1053 1055 1054 
3 1027 1053 1054 
3 1027 1054 1056 
3 1054 1055 1001 
3 1054 1001 1059 
3 1056 1054 1059 
3 1056 1059 1062 
3 1029 1027 1056 
3 1029 1056 1057 
3 1030 1029 1057 
3 1030 1057 1071 
3 1057 1056 1062 
3 1057 1062 1058 
3 1071 1057 1058 
3 1071 1058 1077 
3 1059 1001 1061 
3 1059 1061 1060 
3 1062 1059 1060 
3 1062 1060 1063 
3 1060 1061 1065 
3 1060 1065 1064 
3 1063 1060 1064 
3 1063 1064 1066 
3 1058 1062 1063 
3 1058 1063 1067 
3 1077 1058 1067 
3 1077 1067 1068 
3 1067 1063 1066 
3 1067 1066 1069 
3 1068 1067 1069 
3 1068 1069 1083 
3 1046 1030 1071 
3 1046 1071 1070 
3 1047 1046 1070 
3 1047 1070 1072 
3 1070 1071 1077 
3 1070 1077 1078 
3 1072 1070 1078 
3 1072 1078 1080 
3 1050 1047 1072 
3 1050 1072 1073 
3 1051 1050 1073 
3 1051 1073 1074 
3 1073 1072 1080 
3 1073 1080 1075 
3 1074 1073 1075 
3 1074 1075 1076 
3 1078 1077 1068 
3 1078 1068 1079 
3 1080 1078 1079 
3 1080 1079 1081 
3 1079 1068 1083 
3 1079 1083 1082 
3 1081 1079 1082 
3 1081 1082 1084 
3 1075 1080 1081 
3 1075 1081 1085 
3 1076 1075 1085 
3 1076 1085 1086 
3 1085 1081 1084 
3 1085 1084 1087 
3 1086 1085 1087 
3 1086 1087 1088 
